<?xml version="1.0" encoding="UTF-8"?>
<svg id="Capa_2" data-name="Capa 2" xmlns="http://www.w3.org/2000/svg" viewBox="0 0 303.82 300.75">
  <defs>
    <style>
      .cls-1 {
        fill: #fff;
      }
    </style>
  </defs>
  <g id="Capa_1-2" data-name="Capa 1">
    <g id="BWWaKt">
      <g>
        <path class="cls-1" d="M266.63,51.49C170.07-59.23-10.99,22.12,3.9,167.53c1.72,16.84,12.69,36.7,12.47,51.25-.19,12.31-19.07,75.67-16.04,78.26,5.01,4.31,72.26-12.88,84.67-12.28,10.68.51,34.28,13.33,51.25,15.12,135.59,14.13,220.29-145.32,130.39-248.38ZM133.5,273.91c-14.22-1.91-36.67-15.02-45.31-15.27-14.22-.38-40.21,8.58-55.93,9.73-2.26-2.9,12.66-50.48,11.83-58.58-.77-7.75-12.34-25.77-14.22-39.51C14.14,55.47,143.83-18.93,232.83,53.37c97.52,79.18,29.21,237.96-99.33,220.54Z"/>
        <path class="cls-1" d="M232.83,53.37C143.83-18.93,14.14,55.47,29.86,170.27c1.88,13.74,13.46,31.76,14.22,39.51.83,8.1-14.09,55.68-11.83,58.58,15.72-1.15,41.71-10.11,55.93-9.73,8.64.26,31.09,13.36,45.31,15.27,128.54,17.41,196.85-141.36,99.33-220.54ZM185.29,228.76c-38.87-2.87-112.5-71.46-111.71-111.71.32-17.63,13.07-45.95,33.61-45.12,13.78.54,32.72,42.7,23.09,52.2-5.29,5.26-14.32-.61-11.96,11.73,2.07,10.84,40.18,47.8,50.13,49.2,11.38,1.56,10.4-13.27,22.35-15.05,7.81-1.18,39.61,16.71,41.84,24.04,7.14,23.73-29.37,36.07-47.35,34.7Z"/>
      </g>
    </g>
  </g>
</svg>